<?xml version="1.0" standalone="no"?><!DOCTYPE svg PUBLIC "-//W3C//DTD SVG 1.1//EN" "http://www.w3.org/Graphics/SVG/1.1/DTD/svg11.dtd"><svg t="1709183919183" class="icon" viewBox="0 0 1024 1024" version="1.1" xmlns="http://www.w3.org/2000/svg" p-id="1395" xmlns:xlink="http://www.w3.org/1999/xlink" width="200" height="200"><path d="M879.78646 8.338c22.23-8.492 46.12 8.282 45.086 32.056-8.336 191.602-74.29 356.774-74.29 356.774l-249.118-174.796C700.78646 102.744 820.97046 30.808 879.78646 8.338z" fill="#D26437" p-id="1396"></path><path d="M684.50446 280.638c64.736-105.428 162.38-206.092 193.294-224.052 12.532-7.28 23.536 10.532 20.73 34.01-14.93 124.96-42.01 237.198-58.686 299.038l-155.338-108.996z" fill="#B44632" p-id="1397"></path><path d="M144.21446 8.338C121.98446-0.154 98.09446 16.62 99.12846 40.394c8.336 191.602 74.29 356.774 74.29 356.774l249.118-174.796C323.21446 102.744 203.03046 30.808 144.21446 8.338z" fill="#D26437" p-id="1398"></path><path d="M339.49646 280.638C274.76046 175.21 177.11646 74.546 146.20246 56.586c-12.532-7.28-23.536 10.532-20.73 34.01 14.93 124.96 42.01 237.198 58.686 299.038l155.338-108.996z" fill="#B44632" p-id="1399"></path><path d="M412.90446 951.84a99.096 66.06 0 1 0 198.192 0 99.096 66.06 0 1 0-198.192 0Z" fill="#EBC9A0" p-id="1400"></path><path d="M396.38846 935.318c-115.612-66.064-307.146-137.99-307.146-137.99l18.38-55.142c-7.748-3.68-60.826-4.374-107.62 11.454l49.548-82.58h346.838v264.258zM627.61246 935.318c115.612-66.064 307.146-137.99 307.146-137.99l-18.38-55.142c7.748-3.68 60.826-4.374 107.62 11.454l-49.548-82.58H627.61246v264.258z" fill="#EBC9A0" p-id="1401"></path><path d="M512.00046 192.094c240.754 0 447.432 241.22 511.256 557.82 0.25 1.242 0.498 2.484 0.744 3.728 0 0-121.806-125.936-253.936-58.838-48.998 24.882-72.258 79.55-72.258 139.288 0 99.048-79.398 153.852-173.46 115.782a32.696 32.696 0 0 0-24.694 0c-94.062 38.072-173.46-16.732-173.46-115.782 0-59.738-23.262-114.406-72.258-139.288C121.80646 627.706 0.00046 753.642 0.00046 753.642c0.246-1.244 0.494-2.486 0.744-3.728C64.56846 433.312 271.24646 192.094 512.00046 192.094z" fill="#EB874B" p-id="1402"></path><path d="M338.58046 654.544c-31.794 0-57.806-26.012-57.806-57.806v-33.032c0-31.794 26.012-57.806 57.806-57.806 31.794 0 57.806 26.012 57.806 57.806v33.032c0.002 31.794-26.012 57.806-57.806 57.806z" fill="#4B3F4E" p-id="1403"></path><path d="M338.58046 505.9c-2.826 0-5.538 0.442-8.258 0.838v81.742c0 18.242 14.79 33.032 33.032 33.032 18.244 0 33.032-14.79 33.032-33.032v-24.774c0.002-31.794-26.012-57.806-57.806-57.806z" fill="#5D5360" p-id="1404"></path><path d="M338.58046 547.2m-24.774 0a24.774 24.774 0 1 0 49.548 0 24.774 24.774 0 1 0-49.548 0Z" fill="#FFFFFF" p-id="1405"></path><path d="M685.42046 654.544c-31.794 0-57.806-26.012-57.806-57.806v-33.032c0-31.794 26.012-57.806 57.806-57.806 31.794 0 57.806 26.012 57.806 57.806v33.032c0 31.794-26.014 57.806-57.806 57.806z" fill="#4B3F4E" p-id="1406"></path><path d="M685.42046 505.9c-2.826 0-5.538 0.442-8.258 0.838v81.742c0 18.242 14.79 33.032 33.032 33.032 18.244 0 33.032-14.79 33.032-33.032v-24.774c0-31.794-26.014-57.806-57.806-57.806z" fill="#5D5360" p-id="1407"></path><path d="M685.42046 547.2m-24.774 0a24.774 24.774 0 1 0 49.548 0 24.774 24.774 0 1 0-49.548 0Z" fill="#FFFFFF" p-id="1408"></path><path d="M495.48446 951.398c1.43-0.54 2.862-1.092 4.298-1.664a33.052 33.052 0 0 1 24.438 0c1.436 0.572 2.868 1.124 4.298 1.664v-65.628h-33.032l-0.002 65.628z" fill="#D26437" p-id="1409"></path><path d="M511.04646 786.674c37.014 0 67.02 24.524 67.02 54.778 0 29.176-28.166 44.538-48.494 55.898-11.784 6.584-25.266 6.584-37.05 0-20.328-11.36-48.494-26.722-48.494-55.898-0.002-30.254 30.004-54.778 67.018-54.778z" fill="#5D5360" p-id="1410"></path><path d="M527.46246 895.936c-20.328-14.604-48.494-34.356-48.494-71.868 0-12.294 3.264-23.676 8.532-33.736-25.352 7.81-43.474 27.664-43.474 51.118 0 29.176 28.166 44.538 48.494 55.898 11.784 6.584 25.268 6.584 37.05 0l0.284-0.16c-0.788-0.482-1.618-0.694-2.392-1.252z" fill="#4B3F4E" p-id="1411"></path><path d="M512.00046 192.094l-32.118 1.606C253.04246 214.03 61.70846 447.498 0.74446 749.912A1116.62 1116.62 0 0 0 0.00046 753.64s98.302-101.534 214.072-73.568C228.54846 268.732 485.11646 192.094 512.00046 192.094z" fill="#D26437" p-id="1412"></path></svg>